<?xml version="1.0" encoding="iso-8859-1"?>
<!-- Generator: Adobe Illustrator 19.0.0, SVG Export Plug-In . SVG Version: 6.00 Build 0)  -->
<svg version="1.1" id="Layer_1" xmlns="http://www.w3.org/2000/svg" xmlns:xlink="http://www.w3.org/1999/xlink" x="0px" y="0px"
	 viewBox="0 0 512 512" style="enable-background:new 0 0 512 512;" xml:space="preserve">
<path style="fill:#027372;" d="M471.149,51.745L438.468,503.83h32.681c17.974,0,32.681-14.706,32.681-32.681V84.426L471.149,51.745z
	"/>
<path style="fill:#02ACAB;" d="M471.149,51.745v419.404c0,17.974-14.706,32.681-32.681,32.681h-10.894L256,405.787L84.426,503.83
	H40.851c-17.974,0-32.681-14.706-32.681-32.681V40.851C8.17,22.877,22.877,8.17,40.851,8.17h76.255L256,122.553L394.894,8.17h32.681
	L471.149,51.745z"/>
<path style="fill:#D5F6F5;" d="M362.213,155.234V40.851h-65.362v114.383H362.213z"/>
<polygon style="fill:#ABECEC;" points="394.894,8.17 394.894,187.915 362.213,187.915 285.957,98.043 362.213,8.17 "/>
<polygon style="fill:#D5F6F5;" points="362.213,8.17 362.213,40.851 329.532,98.041 362.213,155.231 362.213,187.915 
	117.106,187.915 117.106,8.17 "/>
<polygon style="fill:#EEEEEE;" points="427.574,329.532 427.574,503.83 394.894,503.83 340.426,285.957 "/>
<polygon style="fill:#FFFFFF;" points="394.894,285.957 394.894,503.83 84.426,503.83 84.426,329.532 "/>
<polygon style="fill:#4D4D4D;" points="362.213,40.851 362.213,155.234 340.426,155.234 318.638,98.043 340.426,40.851 "/>
<rect x="296.851" y="40.851" style="fill:#737373;" width="43.574" height="114.383"/>
<path style="fill:#FEA680;" d="M394.894,253.277h-32.681l32.681,76.255h32.681v-43.574
	C427.574,267.983,412.868,253.277,394.894,253.277z"/>
<path style="fill:#FFC1A6;" d="M394.894,285.957v43.574H84.426v-43.574c0-17.974,14.706-32.681,32.681-32.681h245.106
	C380.187,253.277,394.894,267.983,394.894,285.957z"/>
<path d="M509.607,78.648L433.351,2.392C431.82,0.861,429.741,0,427.574,0H40.851C18.325,0,0,18.325,0,40.851v430.298
	C0,493.675,18.325,512,40.851,512h430.298C493.675,512,512,493.675,512,471.149V84.426C512,82.259,511.139,80.181,509.607,78.648z
	 M125.277,16.34h261.447v163.404H125.277V16.34z M495.66,471.149c0,13.515-10.995,24.511-24.511,24.511H40.851
	c-13.516,0-24.511-10.996-24.511-24.511V40.851c0-13.515,10.995-24.511,24.511-24.511h68.085v171.574c0,4.513,3.658,8.17,8.17,8.17
	h277.787c4.512,0,8.17-3.657,8.17-8.17V16.34h21.127l71.469,71.469V471.149z"/>
<path d="M362.213,32.681h-65.362c-4.512,0-8.17,3.657-8.17,8.17v114.383c0,4.513,3.658,8.17,8.17,8.17h65.362
	c4.512,0,8.17-3.657,8.17-8.17V40.851C370.383,36.338,366.725,32.681,362.213,32.681z M354.043,147.064h-49.021V49.021h49.021
	V147.064z"/>
<path d="M394.894,245.106H117.106c-22.526,0-40.851,18.325-40.851,40.851v185.191c0,4.513,3.658,8.17,8.17,8.17
	s8.17-3.657,8.17-8.17V337.702h57.191c4.512,0,8.17-3.657,8.17-8.17c0-4.513-3.658-8.17-8.17-8.17H92.596v-35.404
	c0-13.515,10.995-24.511,24.511-24.511h277.787c13.516,0,24.511,10.996,24.511,24.511v35.404H182.468c-4.512,0-8.17,3.657-8.17,8.17
	c0,4.513,3.658,8.17,8.17,8.17h236.936v133.447c0,4.513,3.658,8.17,8.17,8.17c4.512,0,8.17-3.657,8.17-8.17V285.957
	C435.745,263.432,417.419,245.106,394.894,245.106z"/>
<path d="M340.426,386.723H171.574c-4.512,0-8.17,3.657-8.17,8.17c0,4.513,3.658,8.17,8.17,8.17h168.851
	c4.512,0,8.17-3.657,8.17-8.17C348.596,390.38,344.938,386.723,340.426,386.723z"/>
<path d="M284.141,430.298H171.574c-4.512,0-8.17,3.657-8.17,8.17c0,4.513,3.658,8.17,8.17,8.17h112.567
	c4.512,0,8.17-3.657,8.17-8.17C292.312,433.955,288.655,430.298,284.141,430.298z"/>
<g>
</g>
<g>
</g>
<g>
</g>
<g>
</g>
<g>
</g>
<g>
</g>
<g>
</g>
<g>
</g>
<g>
</g>
<g>
</g>
<g>
</g>
<g>
</g>
<g>
</g>
<g>
</g>
<g>
</g>
</svg>
